<?xml version="1.0" encoding="UTF-8"?><svg xmlns="http://www.w3.org/2000/svg" xmlns:xlink="http://www.w3.org/1999/xlink" height="222.6" preserveAspectRatio="xMidYMid meet" version="1.0" viewBox="-0.1 0.0 488.4 222.6" width="488.4" zoomAndPan="magnify"><g id="change1_1"><path d="M222.4,70.7c0.9-0.8,1.6-1.4,2.3-2c12.5-11.2,25.8-21.2,40.6-29.1c8.8-4.7,17.9-8.3,27.7-10.5c6.2-1.4,12.5-1.9,18.8-0.8 c8.6,1.5,14.5,6.3,17.8,14.3c2.4,5.7,3.2,11.8,3.8,18c0.8,8.7,1.4,17.4,3.4,25.9c1.2,5,2.7,9.8,5.3,14.3c1.8,3.2,4.1,6.1,7.1,8.4 c4.3,3.4,9.2,4.4,14.7,3.8c7.3-0.9,13.9-3.7,20.1-7.3c13.1-7.6,24.3-17.4,34.4-28.5c9.6-10.5,17.8-21.9,25.8-33.6 c6.3-9.2,13-18,20.4-26.3c4.3-4.8,9-9.3,14.4-13c2.8-1.9,5.8-3.5,9.3-4.3c-0.2,0.2-0.4,0.5-0.7,0.7c-12.2,6.7-21.3,16.8-29.6,27.7 c-6,7.9-11.6,16-17.4,24.1c-8.2,11.6-16.9,22.9-27.1,32.9c-8.9,8.8-18.5,16.7-29.5,22.8c-5.5,3.1-11.2,5.4-17.4,6.6 c-10.1,1.9-18.1-1.2-24.2-9.3c-3.8-5.2-6.1-11-7.6-17.2c-1.5-6.1-2.3-12.4-2.9-18.7c-0.7-7.2-1-14.4-2.9-21.4 c-0.3-1.2-0.6-2.3-1-3.4c-3.3-9.2-10.4-14.5-20.2-15.1c-8-0.5-15.6,1.1-23,3.6c-13.4,4.4-25.5,11.3-37,19.4 c-8.5,5.9-16.4,12.5-24.1,19.4c-0.9,0.8-1.3,1.6-1.1,2.9c1.2,8.6,1.2,17.2,0,25.8c-3.8,28.3-13.2,54.6-28,78.9 c-7.9,13-17.9,24.3-30.1,33.5c-4.2,3.1-8.6,5.8-13.5,7.7c-2.5,1-5.1,1.7-7.9,1.7c-3.7,0-6.6-1.6-8.7-4.7c-2.4-3.6-2.9-7.6-2.8-11.7 c0.4-8.1,3.1-15.6,6.3-23c8.8-20.5,20.2-39.4,33.7-57c13.9-18.3,29.5-35.1,46.1-51c2.2-2.1,2.7-3.9,2-6.6c-1.2-4.6-2.4-9.1-4.4-13.4 c-6-12.9-15.8-21.5-29.3-25.8c-10.9-3.5-22.1-4-33.4-2.7c-21.2,2.4-40.7,10-59,20.7C70.4,60.9,49.4,77.5,31.3,97.7 c-11.9,13.3-21.6,27.9-27.6,44.8c-0.8,2.2-1.4,4.4-2.2,6.6c-0.1,0.4-0.7,0.6-1.1,0.9c-0.1-0.4-0.5-0.8-0.4-1.2 c0.1-0.8,0.3-1.6,0.5-2.3c4.1-14.3,11.1-27.2,20-39C30,94.8,41,83.7,53,73.5c15.9-13.4,32.8-25.2,51.5-34.4 c12.8-6.3,26.2-11.1,40.3-13.5c12.7-2.2,25.4-2.5,38,0.7c19.4,4.9,31.8,17.2,37.5,36.3c0.6,2,1,4,1.5,6 C221.9,69.3,222.2,69.9,222.4,70.7z M221,75c-0.8,0.6-1.2,0.9-1.6,1.3c-17.3,16.6-33.6,34.2-48,53.5c-12.3,16.4-22.8,34-31,52.8 c-3.2,7.2-5.9,14.5-6.6,22.4c-0.4,4.1,0.1,8.1,2.4,11.7c2,3.1,4.9,4.3,8.4,3.7c2.4-0.4,4.8-1.1,7.1-2c5.2-2.1,9.9-5.2,14.2-8.8 c12.5-10.1,22.5-22.4,30.4-36.4c9.6-16.9,16.4-34.9,21.1-53.8c3.1-12.3,4.8-24.8,4.2-37.5C221.5,79.8,221.2,77.6,221,75z" fill="inherit"/></g></svg>